<?xml version="1.0" standalone="no"?>
<!DOCTYPE svg PUBLIC "-//W3C//DTD SVG 20010904//EN"
 "http://www.w3.org/TR/2001/REC-SVG-20010904/DTD/svg10.dtd">
<svg version="1.0" xmlns="http://www.w3.org/2000/svg"
 width="900.000000pt" height="900.000000pt" viewBox="0 0 900.000000 900.000000"
 preserveAspectRatio="xMidYMid meet">

<g transform="translate(0.000000,900.000000) scale(0.100000,-0.100000)"
fill="#000000" stroke="none">
<path d="M0 4500 l0 -4500 4500 0 4500 0 0 4500 0 4500 -4500 0 -4500 0 0
-4500z m5050 4086 c724 -89 1355 -341 1920 -767 657 -496 1132 -1153 1385
-1914 73 -219 144 -533 170 -746 6 -51 11 -60 50 -92 116 -98 128 -280 24
-387 -37 -38 -39 -43 -39 -103 0 -209 -47 -582 -105 -832 -238 -1029 -913
-1954 -1822 -2496 -535 -319 -1078 -492 -1718 -549 -190 -17 -900 -8 -1070 14
-493 63 -883 183 -1325 407 -371 188 -691 421 -996 724 -552 550 -927 1242
-1082 2000 -45 215 -82 548 -82 729 0 61 -3 70 -25 88 -79 62 -109 209 -63
310 16 34 43 69 71 93 43 36 45 41 52 104 11 112 54 328 95 486 141 542 387
1030 747 1480 122 153 463 493 608 607 319 250 583 408 930 556 406 173 784
263 1295 306 25 2 225 2 445 1 297 -2 435 -7 535 -19z"/>
<path d="M4185 8564 c-884 -96 -1698 -476 -2319 -1084 -224 -218 -377 -403
-543 -650 -330 -494 -553 -1084 -626 -1657 l-13 -103 29 -27 c74 -69 93 -196
44 -295 -16 -32 -44 -71 -64 -87 l-36 -29 7 -144 c61 -1261 661 -2352 1689
-3071 553 -387 1165 -611 1877 -688 341 -36 808 24 1275 166 261 79 595 230
850 384 945 571 1610 1515 1824 2586 41 202 59 343 72 570 l12 190 -50 51
c-39 39 -53 63 -67 113 -26 95 -3 194 61 254 l29 27 -13 98 c-42 316 -135 664
-258 972 -21 52 -82 181 -135 285 -185 367 -401 671 -680 959 -653 673 -1476
1076 -2416 1181 -159 18 -377 17 -549 -1z m204 -601 c67 -32 92 -124 51 -190
-28 -47 -89 -74 -182 -80 l-78 -6 0 -57 c0 -31 3 -85 6 -119 l7 -61 43 0 c56
0 57 -17 2 -24 -119 -14 -200 -16 -196 -3 3 6 18 13 34 15 16 2 32 7 36 10 7
7 -18 433 -28 481 -4 20 -10 23 -39 19 -23 -3 -35 0 -35 8 0 8 34 14 108 19
59 3 114 8 122 10 28 7 114 -6 149 -22z m392 13 c133 -16 174 -31 212 -75 21
-25 27 -43 27 -79 0 -100 -63 -147 -194 -144 -44 1 -87 4 -96 7 -20 6 -25 -15
-36 -152 l-7 -82 42 -7 c22 -4 41 -11 41 -17 0 -9 -73 -6 -192 9 -53 7 -55 24
-3 24 18 0 35 6 38 13 10 26 50 464 44 480 -4 11 -18 17 -37 17 -16 0 -30 5
-30 10 0 13 52 12 191 -4z m609 -117 c102 -29 189 -55 193 -59 5 -4 4 -26 -2
-49 -6 -22 -16 -59 -21 -81 -12 -46 -35 -56 -25 -11 9 42 -4 97 -29 125 -23
24 -117 57 -170 60 -28 1 -29 -1 -58 -103 -20 -69 -26 -107 -20 -113 6 -6 31
-13 56 -15 42 -5 46 -4 65 28 12 19 23 39 25 44 2 6 6 7 10 4 9 -9 -54 -229
-66 -229 -5 0 -6 16 -2 35 4 24 1 42 -10 59 -17 26 -83 53 -96 40 -10 -12 -60
-187 -60 -212 0 -16 15 -24 81 -42 47 -12 92 -19 108 -15 35 7 72 46 101 105
13 25 25 39 27 33 5 -14 -44 -172 -58 -187 -11 -12 -421 105 -416 118 2 6 13
9 23 7 58 -12 53 -21 126 229 37 129 68 236 68 238 0 2 -16 10 -35 18 -35 14
-50 40 -17 30 9 -3 100 -28 202 -57z m-1608 -200 l151 -231 44 4 c28 2 43 -1
43 -8 0 -15 -215 -69 -231 -58 -9 5 -2 11 22 19 18 7 35 19 37 28 3 16 -53
107 -66 107 -4 0 -44 -9 -89 -21 l-81 -22 -5 -41 c-2 -22 1 -52 7 -66 10 -21
18 -25 49 -22 48 4 48 -14 0 -27 -95 -25 -161 -41 -167 -41 -17 0 -2 19 24 30
40 16 46 43 65 275 21 264 26 305 36 305 5 0 77 -104 161 -231z m2101 15 c72
-36 147 -80 164 -97 41 -39 51 -83 28 -130 -24 -52 -59 -71 -126 -71 l-57 1
19 -31 c24 -40 24 -79 -1 -158 -24 -76 -25 -94 -4 -102 15 -6 64 37 64 56 0 5
5 6 10 3 12 -8 1 -30 -34 -67 -31 -34 -72 -37 -110 -7 -35 27 -34 61 4 156 37
93 39 135 5 161 -26 21 -83 47 -89 41 -11 -12 -106 -211 -106 -222 0 -7 16
-21 35 -30 19 -9 35 -21 35 -27 0 -14 5 -16 -114 40 -58 27 -106 55 -106 61 0
7 8 9 20 5 11 -3 29 -9 39 -12 17 -5 34 23 130 215 61 121 111 223 111 226 0
2 -13 11 -30 20 -26 13 -41 35 -25 35 3 0 65 -30 138 -66z m-2701 0 c66 -22
122 -75 158 -147 37 -76 47 -147 30 -218 -20 -82 -76 -130 -238 -206 -72 -34
-134 -57 -137 -53 -3 5 8 16 25 25 16 8 30 21 30 27 0 12 -183 390 -206 426
-14 21 -16 21 -44 7 -35 -18 -40 -19 -40 -2 0 6 60 40 133 75 187 89 209 94
289 66z m2063 -1069 l126 -95 249 0 c146 0 271 -5 302 -11 191 -41 366 -198
430 -387 l23 -67 3 -1161 c2 -1108 2 -1162 -16 -1184 -18 -22 -20 -22 -289
-21 l-270 1 -7 -48 c-12 -91 -75 -184 -164 -242 l-23 -15 0 -397 0 -398 -64 0
-65 0 0 385 0 385 -365 0 -366 0 -24 25 c-24 23 -25 29 -25 164 l0 140 -192
-2 -193 -2 -3 -145 c-2 -133 -4 -146 -23 -162 -19 -16 -52 -18 -355 -18 l-334
0 0 -385 0 -385 -60 0 -60 0 0 390 c0 305 -3 390 -12 390 -30 0 -116 50 -154
89 -49 49 -74 96 -89 171 l-12 55 -249 2 c-137 1 -259 2 -271 3 -12 0 -29 7
-37 16 -15 14 -16 128 -14 1192 l3 1177 24 60 c58 144 153 252 281 319 110 58
162 66 445 66 l251 0 124 94 125 95 612 0 612 1 126 -95z m-808 -3607 l73 -72
75 74 75 74 40 -39 c22 -21 40 -44 40 -50 0 -6 -38 -48 -85 -95 l-85 -85 0
-112 0 -113 -65 0 -65 0 0 118 0 117 -85 85 -85 84 42 43 c23 24 44 43 47 43
3 0 38 -33 78 -72z m-2371 -236 c51 -41 51 -112 1 -147 -71 -49 -164 20 -137
101 20 61 90 84 136 46z m4879 -88 c87 -41 54 -170 -42 -167 -83 2 -117 99
-54 155 36 32 50 34 96 12z m-4218 -313 c43 -20 86 -74 98 -124 9 -36 22 -43
45 -22 39 35 26 -3 -27 -77 -50 -71 -84 -102 -69 -62 47 121 21 229 -63 264
-54 22 -131 -35 -131 -97 0 -10 28 -68 63 -128 54 -97 62 -116 61 -161 0 -99
-91 -169 -185 -144 -57 16 -111 71 -135 138 -10 28 -23 52 -28 52 -5 0 -20
-10 -33 -22 -46 -43 -23 6 48 99 72 96 96 114 63 46 -26 -55 -30 -168 -7 -213
41 -78 131 -103 184 -51 45 46 40 85 -27 203 -67 117 -77 164 -45 225 19 38
55 72 91 86 28 10 55 7 97 -12z m3594 -34 c18 -12 40 -34 47 -47 12 -24 11
-88 -2 -120 -5 -13 4 -15 58 -15 58 0 68 -3 96 -30 64 -62 62 -149 -6 -225
-65 -72 -153 -92 -199 -45 -37 36 -29 93 15 107 38 13 68 -40 39 -69 -15 -15
-4 -43 17 -43 28 0 95 44 110 72 19 37 18 62 -6 107 -32 64 -93 101 -140 86
-11 -4 -39 -25 -60 -46 -22 -22 -45 -37 -50 -34 -19 12 -7 31 40 67 39 30 45
39 48 77 3 39 -1 46 -41 87 -57 56 -97 60 -145 13 -18 -17 -32 -40 -32 -50 0
-21 32 -41 53 -34 17 7 40 -19 35 -41 -9 -49 -80 -42 -105 11 -15 31 -15 37 1
80 37 96 152 143 227 92z m-3213 -235 c62 -36 83 -61 40 -47 -65 20 -56 28
-174 -177 -152 -263 -141 -235 -105 -256 31 -17 40 -32 20 -32 -17 0 -189 101
-189 111 0 12 17 11 39 -3 10 -6 25 -9 33 -6 17 7 248 399 248 421 0 7 -11 20
-25 27 -14 7 -25 20 -25 28 0 11 9 9 38 -8 20 -12 65 -39 100 -58z m2870 -2
c86 -52 90 -124 18 -292 -45 -104 -56 -160 -36 -173 12 -8 149 66 174 94 18
19 18 39 0 85 -3 9 -2 16 3 16 7 0 73 -121 73 -135 0 -6 -248 -145 -259 -145
-13 0 -31 57 -31 99 0 20 16 81 35 135 19 55 35 109 35 120 0 65 -48 148 -97
167 -56 21 -143 -34 -143 -91 0 -50 9 -60 54 -60 65 0 88 -35 43 -65 -58 -37
-137 48 -121 130 19 103 163 169 252 115z m-2656 -107 c19 -6 19 -7 74 -308
20 -110 37 -201 38 -203 5 -5 136 340 136 358 0 10 -12 27 -27 38 -47 34 -20
34 66 1 84 -33 107 -58 48 -51 -22 2 -37 -2 -48 -15 -9 -10 -55 -117 -103
-238 -48 -121 -91 -223 -94 -227 -19 -20 -33 30 -81 287 -29 154 -54 281 -55
282 -1 2 -35 -79 -75 -180 -85 -214 -87 -230 -22 -264 1 -1 0 -6 -3 -12 -4 -5
-39 4 -88 24 -88 35 -117 61 -56 50 25 -5 39 -2 51 9 15 15 177 414 177 436 0
6 -13 16 -30 21 -16 6 -30 17 -30 25 0 11 11 9 53 -7 28 -12 60 -24 69 -26z
m2246 -82 c190 -98 243 -440 79 -506 -50 -20 -72 -19 -123 6 -148 71 -231 327
-147 455 40 62 121 81 191 45z m-1591 -112 c24 -12 51 -32 60 -45 19 -30 36
-30 56 -1 8 12 18 19 22 15 10 -10 -28 -204 -40 -201 -5 1 -14 28 -21 60 -14
67 -45 125 -79 147 -13 9 -44 16 -68 16 -37 0 -50 -6 -76 -32 -49 -51 -91
-202 -91 -332 0 -59 4 -79 23 -107 28 -41 60 -59 110 -59 68 0 124 46 157 128
12 32 24 40 34 23 9 -14 -44 -109 -75 -135 -74 -62 -197 -49 -261 28 -123 147
-51 450 119 503 56 17 82 15 130 -8z m1183 -7 c48 -24 80 -75 80 -127 0 -49
-26 -93 -123 -210 -48 -56 -67 -87 -67 -107 0 -34 16 -36 117 -12 84 19 103
35 103 86 0 59 16 37 24 -32 4 -34 9 -67 12 -74 7 -19 -285 -83 -297 -64 -22
32 12 129 71 203 61 76 82 122 82 175 -1 103 -61 162 -141 140 -84 -22 -113
-130 -36 -130 12 0 30 -9 41 -21 34 -37 -17 -75 -66 -49 -30 16 -53 76 -46
116 19 96 152 154 246 106z m-542 -47 c2 -1 2 -42 0 -91 -3 -90 -6 -92 -28
-17 -7 23 -24 53 -37 65 -22 21 -34 23 -121 23 l-97 0 -3 -117 -3 -118 46 0
c54 0 85 25 85 69 0 17 5 33 10 36 6 4 10 -37 10 -114 0 -74 -4 -121 -10 -121
-5 0 -10 13 -10 29 0 45 -29 72 -81 78 l-46 5 -5 -113 c-3 -62 -4 -119 -1
-126 7 -19 165 -18 202 2 31 15 59 66 68 121 3 19 10 37 16 41 10 6 4 -193 -6
-203 -8 -8 -437 9 -437 17 0 4 17 9 38 11 l37 3 6 75 c4 41 7 155 8 253 l1
177 -34 0 c-34 0 -52 11 -39 24 5 5 424 -3 431 -9z"/>
<path d="M4171 7951 c-11 -7 -12 -31 -6 -126 l7 -118 70 7 c83 7 103 17 123
56 27 53 16 129 -25 170 -16 16 -33 20 -87 20 -38 0 -74 -4 -82 -9z"/>
<path d="M4739 7949 c-4 -20 -26 -235 -25 -236 2 -2 37 -6 79 -9 67 -6 80 -5
98 12 33 30 49 69 49 118 0 36 -6 52 -27 76 -25 28 -36 32 -100 37 -40 3 -73
4 -74 2z"/>
<path d="M3626 7689 c-14 -163 -14 -179 -4 -179 9 0 98 23 136 36 8 2 -8 35
-49 96 -34 51 -65 97 -69 102 -5 4 -11 -20 -14 -55z"/>
<path d="M5862 7638 c-5 -7 -28 -50 -51 -95 l-41 -83 50 -25 c63 -32 119 -33
147 -2 31 33 43 62 43 100 0 38 -23 64 -87 96 -50 25 -48 24 -61 9z"/>
<path d="M3029 7645 c-64 -23 -119 -55 -119 -69 0 -15 208 -446 216 -446 19 0
146 74 162 95 30 38 36 94 18 164 -31 121 -98 219 -171 252 -47 22 -58 22
-106 4z"/>
<path d="M3990 6515 l0 -65 103 0 103 0 153 -90 c84 -49 156 -90 160 -90 4 0
76 41 159 90 l151 90 106 0 106 0 -3 63 -3 62 -517 3 -518 2 0 -65z"/>
<path d="M3793 6461 l-63 -46 1 -390 0 -390 151 -167 c83 -93 153 -167 154
-165 2 2 -37 99 -86 216 l-90 213 -2 388 -3 387 -62 -46z"/>
<path d="M5150 6115 l0 -397 -59 -141 c-85 -203 -111 -270 -108 -273 1 -1 68
72 149 162 l148 163 0 393 1 393 -37 31 c-20 17 -50 39 -65 48 l-29 17 0 -396z"/>
<path d="M3340 6380 c-256 -6 -277 -11 -372 -71 -82 -53 -148 -141 -182 -242
-15 -44 -16 -161 -16 -1110 0 -584 0 -1083 0 -1109 l0 -48 225 0 225 0 0 970
0 971 63 -3 62 -3 2 -1040 c1 -572 5 -1055 8 -1073 8 -42 59 -100 110 -123 36
-17 73 -19 383 -19 l342 0 0 728 0 727 -276 305 c-151 168 -284 319 -295 335
-18 28 -19 50 -19 405 1 206 1 380 0 386 0 7 -6 13 -12 15 -7 2 -119 2 -248
-1z m650 -2190 l0 -60 -225 0 -225 0 0 60 0 60 225 0 225 0 0 -60z"/>
<path d="M5410 5982 l0 -399 -290 -322 -290 -321 0 -730 0 -730 343 0 c311 0
346 2 382 19 48 22 79 54 100 103 13 33 15 162 15 1088 l0 1050 65 0 65 0 0
-970 0 -970 225 0 225 0 0 1099 c0 1064 -1 1101 -20 1162 -39 126 -116 216
-238 277 l-76 37 -253 3 -253 3 0 -399z m70 -1792 l0 -60 -227 0 -228 0 3 60
4 60 224 0 224 0 0 -60z"/>
<path d="M3990 6037 l0 -282 160 -384 160 -383 2 -367 3 -366 193 -3 192 -2 0
360 0 361 164 393 164 394 -2 278 -1 279 -62 3 -62 3 -3 -205 c-3 -184 -5
-206 -22 -225 -11 -12 -30 -21 -43 -21 -13 0 -92 41 -174 90 l-150 91 -152
-91 c-83 -49 -161 -90 -174 -90 -12 0 -31 10 -43 22 -19 20 -20 34 -20 225 l0
203 -65 0 -65 0 0 -283z m562 -254 c43 -39 8 -107 -53 -101 -78 7 -68 117 10
118 14 0 33 -7 43 -17z m-2 -323 c11 -11 20 -31 20 -45 0 -30 -32 -65 -59 -65
-31 0 -63 33 -63 65 0 32 32 65 63 65 10 0 28 -9 39 -20z m0 -320 c41 -41 13
-110 -46 -110 -51 0 -76 78 -34 112 29 23 55 23 80 -2z m2 -327 c38 -34 11
-103 -41 -103 -60 1 -86 59 -48 108 14 17 67 15 89 -5z m0 -320 c43 -39 8
-107 -53 -101 -78 7 -68 117 10 118 14 0 33 -7 43 -17z"/>
<path d="M4250 6161 c0 -61 2 -111 5 -111 10 0 175 102 175 109 0 3 -21 18
-48 33 -26 15 -66 39 -89 53 l-43 26 0 -110z"/>
<path d="M4672 6213 l-93 -55 91 -55 c50 -30 93 -53 96 -50 3 2 3 52 2 110
l-3 106 -93 -56z"/>
<path d="M4314 4117 c-2 -7 -3 -80 -2 -162 l3 -150 193 -3 192 -2 0 165 0 165
-190 0 c-147 0 -192 -3 -196 -13z"/>
<path d="M5454 1890 c-63 -25 -69 -101 -21 -241 54 -156 113 -239 169 -239 95
0 111 89 47 263 -62 173 -127 244 -195 217z"/>
<path d="M3708 8513 c7 -3 16 -2 19 1 4 3 -2 6 -13 5 -11 0 -14 -3 -6 -6z"/>
<path d="M5188 8513 c7 -3 16 -2 19 1 4 3 -2 6 -13 5 -11 0 -14 -3 -6 -6z"/>
<path d="M5328 8513 c7 -3 16 -2 19 1 4 3 -2 6 -13 5 -11 0 -14 -3 -6 -6z"/>
<path d="M3528 8503 c7 -3 16 -2 19 1 4 3 -2 6 -13 5 -11 0 -14 -3 -6 -6z"/>
<path d="M3668 8503 c7 -3 16 -2 19 1 4 3 -2 6 -13 5 -11 0 -14 -3 -6 -6z"/>
<path d="M5228 8503 c6 -2 18 -2 25 0 6 3 1 5 -13 5 -14 0 -19 -2 -12 -5z"/>
<path d="M5378 8503 c7 -3 16 -2 19 1 4 3 -2 6 -13 5 -11 0 -14 -3 -6 -6z"/>
<path d="M3360 8469 c-665 -168 -1263 -499 -1754 -970 -662 -635 -1063 -1425
-1190 -2346 -6 -42 -6 -43 20 -33 14 6 40 10 59 10 l33 0 12 88 c96 703 405
1401 861 1948 535 642 1217 1084 2012 1304 134 37 95 36 -53 -1z"/>
<path d="M3520 8474 c-595 -156 -1072 -392 -1535 -761 -140 -111 -454 -424
-571 -568 -473 -584 -756 -1236 -857 -1976 -5 -37 -5 -37 49 -57 62 -23 59
-27 69 78 10 93 60 345 96 479 260 968 886 1815 1734 2344 176 110 457 251
647 325 125 49 365 126 483 155 l20 5 -20 0 c-11 1 -63 -10 -115 -24z"/>
<path d="M5417 8455 c643 -186 1216 -523 1692 -994 588 -583 987 -1357 1117
-2165 36 -230 30 -209 62 -193 15 8 39 17 54 21 23 5 27 10 23 34 -61 359
-101 532 -175 752 -150 448 -393 883 -708 1263 -117 142 -402 422 -552 541
-451 360 -931 601 -1485 747 -201 52 -217 49 -28 -6z"/>
<path d="M5555 8455 c519 -151 962 -381 1379 -715 787 -632 1291 -1507 1441
-2502 8 -54 15 -100 15 -103 0 -3 15 -5 34 -5 19 0 46 -4 61 -10 25 -10 26 -9
21 23 -49 299 -72 409 -125 597 -183 648 -557 1269 -1045 1737 -510 490 -1101
821 -1764 988 -191 48 -199 43 -17 -10z"/>
<path d="M436 5096 c-59 -22 -108 -67 -139 -127 -24 -46 -28 -63 -25 -114 10
-148 115 -243 262 -233 245 15 312 348 93 459 -52 27 -140 34 -191 15z m74
-148 c25 0 60 9 90 25 28 14 50 24 50 22 0 -2 -11 -25 -25 -51 -31 -59 -32
-98 0 -159 13 -27 23 -50 22 -52 -2 -1 -25 9 -52 22 -62 32 -90 31 -159 -3
-31 -16 -56 -28 -56 -26 0 1 11 22 25 45 32 57 32 111 0 175 -14 27 -25 50
-25 52 0 2 20 -9 44 -23 28 -16 61 -26 86 -27z"/>
<path d="M8340 5101 c-78 -25 -148 -90 -170 -156 -7 -20 -10 -65 -8 -100 5
-85 44 -148 118 -192 47 -28 63 -33 120 -33 108 1 181 47 226 144 71 153 -34
331 -203 342 -32 2 -69 0 -83 -5z m-29 -126 c55 -31 115 -32 170 -4 23 11 43
18 46 16 2 -3 -5 -23 -16 -46 -28 -54 -27 -106 4 -164 14 -26 23 -47 20 -47
-3 0 -27 11 -53 25 -59 31 -83 31 -150 0 -30 -14 -56 -25 -58 -25 -2 0 7 22
21 50 32 64 31 103 -4 168 -16 28 -28 52 -26 52 2 0 23 -11 46 -25z"/>
<path d="M384 4558 c3 -35 8 -117 11 -183 23 -473 173 -1033 397 -1479 249
-497 568 -898 1008 -1270 432 -366 966 -640 1540 -791 187 -49 196 -43 15 9
-892 260 -1674 832 -2192 1606 -398 594 -622 1277 -659 2008 -7 132 -7 132
-33 138 -14 3 -36 10 -49 15 -40 16 -43 12 -38 -53z"/>
<path d="M590 4604 c-19 -7 -43 -13 -53 -13 -15 -1 -17 -10 -11 -103 33 -597
157 -1084 402 -1584 207 -421 475 -783 814 -1101 463 -434 965 -731 1543 -911
147 -46 295 -85 301 -79 2 2 -26 12 -63 22 -38 10 -135 41 -218 70 -460 160
-897 407 -1258 713 -154 130 -412 393 -529 537 -538 669 -839 1465 -875 2313
-3 83 -9 151 -12 151 -3 -1 -22 -7 -41 -15z"/>
<path d="M8277 4468 c-47 -1139 -596 -2207 -1507 -2933 -366 -292 -875 -555
-1317 -681 -73 -21 -131 -40 -129 -42 14 -13 419 111 611 188 410 164 822 420
1140 707 799 723 1248 1652 1315 2717 5 88 9 160 7 161 -1 1 -20 7 -42 12 -22
6 -47 14 -56 17 -14 6 -17 -11 -22 -146z"/>
<path d="M8495 4610 c-11 -5 -32 -11 -46 -14 l-26 -6 -7 -137 c-27 -521 -159
-1044 -381 -1509 -281 -590 -720 -1116 -1257 -1507 -331 -241 -789 -468 -1165
-578 -62 -18 -111 -34 -109 -36 2 -2 50 8 107 22 524 133 1060 409 1493 769
210 174 435 405 597 611 485 619 790 1419 824 2165 3 69 8 149 10 178 5 55 1
60 -40 42z"/>
<path d="M5468 813 c7 -3 16 -2 19 1 4 3 -2 6 -13 5 -11 0 -14 -3 -6 -6z"/>
<path d="M3618 803 c7 -3 16 -2 19 1 4 3 -2 6 -13 5 -11 0 -14 -3 -6 -6z"/>
<path d="M5428 803 c7 -3 16 -2 19 1 4 3 -2 6 -13 5 -11 0 -14 -3 -6 -6z"/>
<path d="M3518 793 c7 -3 16 -2 19 1 4 3 -2 6 -13 5 -11 0 -14 -3 -6 -6z"/>
<path d="M3658 793 c7 -3 16 -2 19 1 4 3 -2 6 -13 5 -11 0 -14 -3 -6 -6z"/>
<path d="M5238 793 c7 -3 16 -2 19 1 4 3 -2 6 -13 5 -11 0 -14 -3 -6 -6z"/>
</g>
</svg>
